# xmcd
#
# Track frame offsets:
# 150
# 12930
# 26847
# 40590
# 50662
# 62145
# 74425
# 105595
# 121695
# 140642
# 153552
# 168147
# 186770
# 211435
#
# Disc length: 2982 seconds
#
#
# Revision: 4
# Processed by: cddbd v1.5.2PL0 Copyright (c) Steve Scherf et al.
# Submitted via: FreeRIP 2.96 
#
DISCID=c20ba40e
DTITLE=Various Artist - The Ultimate Blues Collection [CD1]
DYEAR=1990
DGENRE=Blues
TTITLE0=Hoochie Coochie Man [Muddy Waters]
TTITLE1=Smokestack Lightning [Howlin' Wolf]
TTITLE2=Dust my Broom [Elmore James]
TTITLE3=Dimples [John Lee Hooker]
TTITLE4=Don't Start Me Talking [Sonny Boy Williamson]
TTITLE5=Juke [Little Walter]
TTITLE6=Outside Help [B.B. King]
TTITLE7=All Your Love [John Mayall's Blues Breakers]
TTITLE8=I Got My Mojo Working [Alexis Korner and Colin Hodgkinson]
TTITLE9=Black Magic Woman [Fleetwood Mac]
TTITLE10=I'd Rather Go Blind [Chicken Shack]
TTITLE11=Train To Nowhere [Savoy Brown]
TTITLE12=Catfish Blues [Jimi Hendrix]
TTITLE13=Good Morning Little School Girl [Johnny Winter]
EXTD=
EXTT0=
EXTT1=
EXTT2=
EXTT3=
EXTT4=
EXTT5=
EXTT6=
EXTT7=
EXTT8=
EXTT9=
EXTT10=
EXTT11=
EXTT12=
EXTT13=
PLAYORDER=
